<svg xmlns="http://www.w3.org/2000/svg" width="128" height="128" viewBox="0 0 64 64" role="img" aria-label="Shiftly logo">
  <rect x="2" y="6" width="60" height="52" rx="8" ry="8" fill="#0f172a"/>

  <rect x="8" y="10" width="48" height="8" rx="2" ry="2" fill="#0ea5a4"/>

  <rect x="12" y="22" width="8" height="4" rx="1" ry="1" fill="#fff" opacity="0.95"/>
  <rect x="28" y="22" width="8" height="4" rx="1" ry="1" fill="#fff" opacity="0.95"/>
  <rect x="44" y="22" width="8" height="4" rx="1" ry="1" fill="#fff" opacity="0.95"/>

  <rect x="12" y="30" width="8" height="4" rx="1" ry="1" fill="#fff" opacity="0.95"/>
  <rect x="28" y="30" width="8" height="4" rx="1" ry="1" fill="#fff" opacity="0.95"/>
  <rect x="44" y="30" width="8" height="4" rx="1" ry="1" fill="#fff" opacity="0.95"/>

  <path d="M36 16 L30 28 L34 28 L28 42 L40 24 L36 24 Z"
        fill="#f59e0b" transform="translate(0,0)"/>

  <rect x="2" y="6" width="60" height="52" rx="8" ry="8" fill="none" stroke="#0b1220" stroke-opacity="0.25" stroke-width="1"/>
</svg>
